<svg xmlns="http://www.w3.org/2000/svg" width="20" height="20" viewBox="0 0 20 20" fill="none">
  <path d="M9.99967 18.9669C9.09134 18.9669 8.19134 18.7002 7.48301 18.1752L3.89967 15.5002C2.94967 14.7919 2.20801 13.3085 2.20801 12.1335V5.93353C2.20801 4.6502 3.14967 3.28353 4.35801 2.83353L8.51634 1.2752C9.34134 0.966862 10.6413 0.966862 11.4663 1.2752L15.6247 2.83353C16.833 3.28353 17.7747 4.6502 17.7747 5.93353V12.1252C17.7747 13.3085 17.033 14.7835 16.083 15.4919L12.4997 18.1669C11.808 18.7002 10.908 18.9669 9.99967 18.9669ZM8.95801 2.4502L4.79967 4.00853C4.09134 4.2752 3.46634 5.1752 3.46634 5.94186V12.1335C3.46634 12.9252 4.02467 14.0335 4.64967 14.5002L8.23301 17.1752C9.19134 17.8919 10.808 17.8919 11.7747 17.1752L15.358 14.5002C15.9913 14.0252 16.5413 12.9252 16.5413 12.1335V5.93353C16.5413 5.1752 15.9163 4.2752 15.208 4.0002L11.0497 2.44186C10.483 2.24186 9.51634 2.24186 8.95801 2.4502Z" fill="white"/>
  <path d="M8.88353 11.8581C8.72519 11.8581 8.56686 11.7998 8.44186 11.6748L7.1002 10.3331C6.85853 10.0914 6.85853 9.69144 7.1002 9.44977C7.34186 9.20811 7.74186 9.20811 7.98353 9.44977L8.88353 10.3498L12.0252 7.20811C12.2669 6.96644 12.6669 6.96644 12.9085 7.20811C13.1502 7.44977 13.1502 7.84977 12.9085 8.09144L9.32519 11.6748C9.20019 11.7998 9.04186 11.8581 8.88353 11.8581Z" fill="white"/>
</svg>