<svg width="17" height="17" viewBox="0 0 17 17" fill="none" xmlns="http://www.w3.org/2000/svg">
<g id="vuesax/linear/car">
<g id="car">
<path id="Vector" d="M10.8398 2.38672H6.15984C4.49984 2.38672 4.13317 3.21339 3.91984 4.22672L3.1665 7.83339H13.8332L13.0798 4.22672C12.8665 3.21339 12.4998 2.38672 10.8398 2.38672Z" stroke="#292D32" stroke-width="1.2" stroke-linecap="round" stroke-linejoin="round"/>
<path id="Vector_2" d="M15.1598 13.7135C15.2332 14.4935 14.6065 15.1668 13.8065 15.1668H12.5532C11.8332 15.1668 11.7332 14.8602 11.6065 14.4802L11.4732 14.0802C11.2865 13.5335 11.1665 13.1668 10.2065 13.1668H6.79316C5.83316 13.1668 5.69316 13.5802 5.52649 14.0802L5.39316 14.4802C5.26649 14.8602 5.16649 15.1668 4.44649 15.1668H3.19316C2.39316 15.1668 1.76649 14.4935 1.83982 13.7135L2.21316 9.6535C2.30649 8.6535 2.49982 7.8335 4.24649 7.8335H12.7532C14.4998 7.8335 14.6932 8.6535 14.7865 9.6535L15.1598 13.7135Z" stroke="#292D32" stroke-width="1.2" stroke-linecap="round" stroke-linejoin="round"/>
<path id="Vector_3" d="M3.16667 5.8335H2.5" stroke="#141414" stroke-width="1.2" stroke-linecap="round" stroke-linejoin="round"/>
<path id="Vector_4" d="M14.5002 5.8335H13.8335" stroke="#292D32" stroke-width="1.2" stroke-linecap="round" stroke-linejoin="round"/>
<path id="Vector_5" d="M8.5 2.5V3.83333" stroke="#292D32" stroke-width="1.2" stroke-linecap="round" stroke-linejoin="round"/>
<path id="Vector_6" d="M7.5 3.8335H9.5" stroke="#292D32" stroke-width="1.2" stroke-linecap="round" stroke-linejoin="round"/>
<path id="Vector_7" d="M4.5 10.5H6.5" stroke="#292D32" stroke-width="1.2" stroke-linecap="round" stroke-linejoin="round"/>
<path id="Vector_8" d="M10.5 10.5H12.5" stroke="#292D32" stroke-width="1.2" stroke-linecap="round" stroke-linejoin="round"/>
</g>
</g>
</svg>


