<svg xmlns="http://www.w3.org/2000/svg" width="20" height="20" viewBox="0 0 20 20" fill="none">
  <path d="M9.99967 18.9669C9.09134 18.9669 8.19134 18.7002 7.48301 18.1752L3.89967 15.5002C2.94967 14.7919 2.20801 13.3085 2.20801 12.1335V5.93353C2.20801 4.6502 3.14967 3.28353 4.35801 2.83353L8.51634 1.2752C9.34134 0.966862 10.6413 0.966862 11.4663 1.2752L15.6247 2.83353C16.833 3.28353 17.7747 4.6502 17.7747 5.93353V12.1252C17.7747 13.3085 17.033 14.7835 16.083 15.4919L12.4997 18.1669C11.808 18.7002 10.908 18.9669 9.99967 18.9669ZM8.95801 2.4502L4.79967 4.00853C4.09134 4.2752 3.46634 5.1752 3.46634 5.94186V12.1335C3.46634 12.9252 4.02467 14.0335 4.64967 14.5002L8.23301 17.1752C9.19134 17.8919 10.808 17.8919 11.7747 17.1752L15.358 14.5002C15.9913 14.0252 16.5413 12.9252 16.5413 12.1335V5.93353C16.5413 5.1752 15.9163 4.2752 15.208 4.0002L11.0497 2.44186C10.483 2.24186 9.51634 2.24186 8.95801 2.4502Z" fill="#292D32"/>
  <path d="M11.7915 11.8252C11.6332 11.8252 11.4749 11.7669 11.3499 11.6419L7.8082 8.10023C7.56654 7.85856 7.56654 7.45856 7.8082 7.21689C8.04987 6.97523 8.44987 6.97523 8.69154 7.21689L12.2332 10.7586C12.4749 11.0002 12.4749 11.4002 12.2332 11.6419C12.1082 11.7586 11.9499 11.8252 11.7915 11.8252Z" fill="#292D32"/>
  <path d="M8.20788 11.8584C8.04954 11.8584 7.89121 11.8001 7.76621 11.6751C7.52454 11.4334 7.52454 11.0334 7.76621 10.7918L11.3079 7.2501C11.5495 7.00843 11.9495 7.00843 12.1912 7.2501C12.4329 7.49176 12.4329 7.89176 12.1912 8.13343L8.64954 11.6751C8.53288 11.8001 8.36621 11.8584 8.20788 11.8584Z" fill="#292D32"/>
</svg>