<svg xmlns="http://www.w3.org/2000/svg" width="32" height="32" viewBox="0 0 32 32" fill="none">
  <g clip-path="url(#clip0_8312_1361)">
    <path fill-rule="evenodd" clip-rule="evenodd" d="M16 0C24.8366 0 32 7.16341 32 16C32 24.8366 24.8366 32 16 32C7.16341 32 0 24.8366 0 16C0 7.16341 7.16341 0 16 0ZM16 3.38025C22.9697 3.38025 28.6197 9.03029 28.6197 16C28.6197 22.9697 22.9697 28.6197 16 28.6197C9.03029 28.6197 3.38025 22.9697 3.38025 16C3.38025 9.03029 9.03029 3.38025 16 3.38025Z" fill="white"/>
    <path fill-rule="evenodd" clip-rule="evenodd" d="M29.13 14.7513C15.9537 7.18499 3.80072 14.1271 2.87031 14.7437C2.82948 15.1569 2.80859 15.1174 2.80859 16C2.80859 16.8825 3.0178 18.6334 3.40535 19.8459C4.49071 18.9101 6.47608 18.3436 8.02155 18.3436C12.4514 18.3436 16.1174 24.6468 12.9803 28.8277C13.9478 29.0652 14.867 29.1911 15.9998 29.1911C17.1325 29.1911 18.4086 29.0167 19.5284 28.6912C18.812 27.6804 18.3904 26.9179 18.3904 24.5401C18.3904 20.1729 24.5668 16.5591 28.71 19.4624C29.0233 18.3622 29.191 16.811 29.191 16C29.191 15.1889 29.1704 15.162 29.13 14.7513ZM13.8589 16C13.8589 14.8176 14.8174 13.8591 15.9998 13.8591C17.1821 13.8591 18.1406 14.8176 18.1406 16C18.1406 17.1823 17.1821 18.1408 15.9998 18.1408C14.8174 18.1408 13.8589 17.1823 13.8589 16Z" fill="white"/>
  </g>
  <defs>
    <clipPath id="clip0_8312_1361">
      <rect width="32" height="32" fill="white"/>
    </clipPath>
  </defs>
</svg>