<svg width="19" height="18" viewBox="0 0 19 18" fill="none" xmlns="http://www.w3.org/2000/svg">
<g id="vuesax/bold/star">
<g id="star">
<path id="Vector" d="M10.7977 2.63248L12.1177 5.27248C12.2977 5.63998 12.7777 5.99248 13.1827 6.05998L15.5752 6.45748C17.1052 6.71248 17.4652 7.82248 16.3627 8.91748L14.5027 10.7775C14.1877 11.0925 14.0152 11.7 14.1127 12.135L14.6452 14.4375C15.0652 16.26 14.0977 16.965 12.4852 16.0125L10.2427 14.685C9.83768 14.445 9.17018 14.445 8.75768 14.685L6.51518 16.0125C4.91018 16.965 3.93518 16.2525 4.35518 14.4375L4.88768 12.135C4.98518 11.7 4.81268 11.0925 4.49768 10.7775L2.63768 8.91748C1.54268 7.82248 1.89518 6.71248 3.42518 6.45748L5.81768 6.05998C6.21518 5.99248 6.69518 5.63998 6.87518 5.27248L8.19518 2.63248C8.91518 1.19998 10.0852 1.19998 10.7977 2.63248Z" fill="#FFBE26"/>
</g>
</g>
</svg>
