<svg xmlns="http://www.w3.org/2000/svg" width="103" height="26" viewBox="0 0 103 26" fill="none">
  <path fill-rule="evenodd" clip-rule="evenodd" d="M9.70232 17.8407C8.91823 17.8407 8.16624 17.5219 7.61181 16.9546C7.05737 16.3872 6.74588 15.6177 6.74588 14.8153V0.898315H0.833008V14.8153C0.833008 19.8278 4.8041 23.8915 9.70232 23.8915H16.2065V17.8407H9.70232ZM27.441 6.94916C26.7421 6.94916 26.0501 7.09002 25.4045 7.3637C24.7588 7.63737 24.1722 8.0385 23.678 8.54419C23.1839 9.04988 22.7919 9.65021 22.5244 10.3109C22.257 10.9716 22.1194 11.6798 22.1194 12.3949C22.1194 13.1101 22.257 13.8182 22.5244 14.4789C22.7919 15.1396 23.1839 15.74 23.678 16.2457C24.1722 16.7513 24.7588 17.1525 25.4045 17.4262C26.0501 17.6998 26.7421 17.8407 27.441 17.8407C28.8523 17.8407 30.2059 17.2669 31.2039 16.2457C32.2019 15.2244 32.7625 13.8392 32.7625 12.3949C32.7625 10.9506 32.2019 9.56547 31.2039 8.54419C30.2059 7.52291 28.8523 6.94916 27.441 6.94916ZM16.2065 12.3949C16.2065 6.04577 21.2366 0.898315 27.441 0.898315C33.6453 0.898315 38.6754 6.04577 38.6754 12.3949C38.6754 18.7441 33.6453 23.8915 27.441 23.8915C21.2366 23.8915 16.2065 18.7441 16.2065 12.3949ZM91.3 6.94916C89.8886 6.94916 88.5351 7.52291 87.5371 8.54419C86.5391 9.56547 85.9784 10.9506 85.9784 12.3949C85.9784 13.8392 86.5391 15.2244 87.5371 16.2457C88.5351 17.2669 89.8886 17.8407 91.3 17.8407C92.7114 17.8407 94.065 17.2669 95.063 16.2457C96.061 15.2244 96.6216 13.8392 96.6216 12.3949C96.6216 10.9506 96.061 9.56547 95.063 8.54419C94.065 7.52291 92.7114 6.94916 91.3 6.94916ZM80.0656 12.3949C80.0656 6.04577 85.0956 0.898315 91.3 0.898315C97.5044 0.898315 102.534 6.04577 102.534 12.3949C102.534 18.7441 97.5044 23.8915 91.3 23.8915C85.0956 23.8915 80.0656 18.7441 80.0656 12.3949ZM51.0925 0.898315C44.8881 0.898315 39.858 6.04577 39.858 12.3949C39.858 18.7441 44.8881 23.8915 51.0925 23.8915H67.6485C68.8128 23.8915 69.9356 23.71 70.9917 23.3736L74.1527 25.1017L77.5632 18.5644C78.4296 16.9002 78.8828 15.0435 78.883 13.1579V12.3949C78.883 6.04577 73.8529 0.898315 67.6485 0.898315H51.0925ZM72.9701 12.3949C72.9701 10.9506 72.4094 9.56547 71.4114 8.54419C70.4135 7.52291 69.0599 6.94916 67.6485 6.94916H51.0925C50.3936 6.94916 49.7016 7.09002 49.056 7.3637C48.4103 7.63737 47.8237 8.0385 47.3295 8.54419C46.8354 9.04988 46.4434 9.65021 46.176 10.3109C45.9085 10.9716 45.7709 11.6798 45.7709 12.3949C45.7709 13.1101 45.9085 13.8182 46.176 14.4789C46.4434 15.1396 46.8354 15.74 47.3295 16.2457C47.8237 16.7513 48.4103 17.1525 49.056 17.4262C49.7016 17.6998 50.3936 17.8407 51.0925 17.8407H67.6485C69.0527 17.8407 70.4001 17.2728 71.3969 16.2607C72.3937 15.2485 72.9592 13.8742 72.9701 12.4373V12.3949Z" fill="#0A0D12"/>
</svg>