<svg xmlns="http://www.w3.org/2000/svg" width="18" height="18" viewBox="0 0 18 18" fill="none">
  <path d="M12 17.0625H6C3.735 17.0625 2.4375 15.765 2.4375 13.5V6.1875C2.4375 3.825 3.6375 2.625 6 2.625C6.3075 2.625 6.5625 2.88 6.5625 3.1875C6.5625 3.4875 6.6825 3.7725 6.8925 3.9825C7.1025 4.1925 7.3875 4.3125 7.6875 4.3125H10.3125C10.935 4.3125 11.4375 3.81 11.4375 3.1875C11.4375 2.88 11.6925 2.625 12 2.625C14.3625 2.625 15.5625 3.825 15.5625 6.1875V13.5C15.5625 15.765 14.265 17.0625 12 17.0625ZM5.51248 3.765C4.32748 3.8625 3.5625 4.395 3.5625 6.1875V13.5C3.5625 15.165 4.335 15.9375 6 15.9375H12C13.665 15.9375 14.4375 15.165 14.4375 13.5V6.1875C14.4375 4.395 13.6725 3.87 12.4875 3.765C12.2325 4.725 11.355 5.4375 10.3125 5.4375H7.6875C7.0875 5.4375 6.525 5.205 6.0975 4.7775C5.8125 4.4925 5.61748 4.1475 5.51248 3.765Z" fill="#FCFCFC"/>
  <path d="M10.3125 5.4375H7.6875C7.0875 5.4375 6.525 5.205 6.0975 4.7775C5.67 4.35 5.4375 3.7875 5.4375 3.1875C5.4375 1.95 6.45 0.9375 7.6875 0.9375H10.3125C10.9125 0.9375 11.475 1.17 11.9025 1.5975C12.33 2.025 12.5625 2.5875 12.5625 3.1875C12.5625 4.425 11.55 5.4375 10.3125 5.4375ZM7.6875 2.0625C7.065 2.0625 6.5625 2.565 6.5625 3.1875C6.5625 3.4875 6.6825 3.7725 6.8925 3.9825C7.1025 4.1925 7.3875 4.3125 7.6875 4.3125H10.3125C10.935 4.3125 11.4375 3.81 11.4375 3.1875C11.4375 2.8875 11.3175 2.6025 11.1075 2.3925C10.8975 2.1825 10.6125 2.0625 10.3125 2.0625H7.6875Z" fill="#FCFCFC"/>
  <path d="M6 10.4125H9C9.36273 10.4125 9.6625 10.1127 9.6625 9.75C9.6625 9.38727 9.36273 9.0875 9 9.0875H6C5.63727 9.0875 5.3375 9.38727 5.3375 9.75C5.3375 10.1127 5.63727 10.4125 6 10.4125Z" fill="#FCFCFC" stroke="#FCFCFC" stroke-width="0.2"/>
  <path d="M12 13.3125H6C5.6925 13.3125 5.4375 13.0575 5.4375 12.75C5.4375 12.4425 5.6925 12.1875 6 12.1875H12C12.3075 12.1875 12.5625 12.4425 12.5625 12.75C12.5625 13.0575 12.3075 13.3125 12 13.3125Z" fill="#FCFCFC"/>
</svg>