<svg width="19" height="18" viewBox="0 0 19 18" fill="none" xmlns="http://www.w3.org/2000/svg">
<g id="vuesax/linear/information">
<g id="information">
<path id="Vector" d="M8.56266 1.83773C9.08766 1.39523 9.93516 1.39523 10.4452 1.83773L11.6302 2.85023C11.8552 3.03773 12.2827 3.19523 12.5827 3.19523H13.8577C14.6527 3.19523 15.3052 3.84773 15.3052 4.64273V5.91773C15.3052 6.21773 15.4627 6.63773 15.6502 6.86273L16.6627 8.04773C17.1052 8.57273 17.1052 9.42023 16.6627 9.93023L15.6502 11.1152C15.4627 11.3402 15.3052 11.7602 15.3052 12.0602V13.3352C15.3052 14.1302 14.6527 14.7827 13.8577 14.7827H12.5827C12.2827 14.7827 11.8627 14.9402 11.6377 15.1277L10.4527 16.1402C9.92766 16.5827 9.08016 16.5827 8.57016 16.1402L7.38516 15.1277C7.16016 14.9402 6.73266 14.7827 6.44016 14.7827H5.12766C4.33266 14.7827 3.68016 14.1302 3.68016 13.3352V12.0527C3.68016 11.7602 3.53016 11.3327 3.34266 11.1152L2.33016 9.92273C1.89516 9.40523 1.89516 8.56523 2.33016 8.04773L3.34266 6.85523C3.53016 6.63023 3.68016 6.21023 3.68016 5.91773V4.65023C3.68016 3.85523 4.33266 3.20273 5.12766 3.20273H6.42516C6.72516 3.20273 7.14516 3.04523 7.37016 2.85773L8.56266 1.83773Z" stroke="#1F1F1F" stroke-width="1.5" stroke-linecap="round" stroke-linejoin="round"/>
<path id="Vector_2" d="M9.5 6.09766V9.72016" stroke="#1F1F1F" stroke-width="1.5" stroke-linecap="round" stroke-linejoin="round"/>
<g id="Vector_3">
<path fill-rule="evenodd" clip-rule="evenodd" d="M9.49609 12H9.50283H9.49609Z" fill="#1F1F1F"/>
<path d="M9.49609 12H9.50283" stroke="#1F1F1F" stroke-linecap="round" stroke-linejoin="round"/>
</g>
</g>
</g>
</svg>
