<svg xmlns="http://www.w3.org/2000/svg" width="20" height="20" viewBox="0 0 20 20" fill="none">
  <path d="M12.5 7.91699C12.5 9.29774 11.3807 10.417 10 10.417C8.61925 10.417 7.5 9.29774 7.5 7.91699C7.5 6.53628 8.61925 5.41699 10 5.41699C11.3807 5.41699 12.5 6.53628 12.5 7.91699Z" stroke="black" stroke-width="1.2"/>
  <path d="M10 1.66699C13.3823 1.66699 16.25 4.52368 16.25 7.98941C16.25 11.5103 13.3357 13.9812 10.6437 15.6613C10.4476 15.7742 10.2257 15.8337 10 15.8337C9.77425 15.8337 9.55242 15.7742 9.35625 15.6613C6.66937 13.9647 3.75 11.5225 3.75 7.98941C3.75 4.52368 6.61767 1.66699 10 1.66699Z" stroke="black" stroke-width="1.2"/>
  <path d="M15 16.667C15 17.5875 12.7614 18.3337 10 18.3337C7.23857 18.3337 5 17.5875 5 16.667" stroke="black" stroke-width="1.2" stroke-linecap="round"/>
</svg>