<svg xmlns="http://www.w3.org/2000/svg" width="21" height="20" viewBox="0 0 21 20" fill="none">
  <path d="M14.667 17.7087H6.33366C3.29199 17.7087 1.54199 15.9587 1.54199 12.917V7.08366C1.54199 4.04199 3.29199 2.29199 6.33366 2.29199H14.667C17.7087 2.29199 19.4587 4.04199 19.4587 7.08366V12.917C19.4587 15.9587 17.7087 17.7087 14.667 17.7087ZM6.33366 3.54199C3.95033 3.54199 2.79199 4.70033 2.79199 7.08366V12.917C2.79199 15.3003 3.95033 16.4587 6.33366 16.4587H14.667C17.0503 16.4587 18.2087 15.3003 18.2087 12.917V7.08366C18.2087 4.70033 17.0503 3.54199 14.667 3.54199H6.33366Z" fill="#1F1F1F"/>
  <path d="M10.5 13.125C8.775 13.125 7.375 11.725 7.375 10C7.375 8.275 8.775 6.875 10.5 6.875C12.225 6.875 13.625 8.275 13.625 10C13.625 11.725 12.225 13.125 10.5 13.125ZM10.5 8.125C9.46667 8.125 8.625 8.96667 8.625 10C8.625 11.0333 9.46667 11.875 10.5 11.875C11.5333 11.875 12.375 11.0333 12.375 10C12.375 8.96667 11.5333 8.125 10.5 8.125Z" fill="#1F1F1F"/>
  <path d="M4.25 8.95833C3.90833 8.95833 3.625 8.675 3.625 8.33333V7.08333C3.625 5.59167 4.84167 4.375 6.33333 4.375H7.58333C7.925 4.375 8.20833 4.65833 8.20833 5C8.20833 5.34167 7.925 5.625 7.58333 5.625H6.33333C5.53333 5.625 4.875 6.28333 4.875 7.08333V8.33333C4.875 8.675 4.59167 8.95833 4.25 8.95833Z" fill="#1F1F1F"/>
  <path d="M16.7503 8.95833C16.4087 8.95833 16.1253 8.675 16.1253 8.33333V7.08333C16.1253 6.28333 15.467 5.625 14.667 5.625H13.417C13.0753 5.625 12.792 5.34167 12.792 5C12.792 4.65833 13.0753 4.375 13.417 4.375H14.667C16.1587 4.375 17.3753 5.59167 17.3753 7.08333V8.33333C17.3753 8.675 17.092 8.95833 16.7503 8.95833Z" fill="#1F1F1F"/>
  <path d="M7.58333 15.6253H6.33333C4.84167 15.6253 3.625 14.4087 3.625 12.917V11.667C3.625 11.3253 3.90833 11.042 4.25 11.042C4.59167 11.042 4.875 11.3253 4.875 11.667V12.917C4.875 13.717 5.53333 14.3753 6.33333 14.3753H7.58333C7.925 14.3753 8.20833 14.6587 8.20833 15.0003C8.20833 15.342 7.925 15.6253 7.58333 15.6253Z" fill="#1F1F1F"/>
  <path d="M14.667 15.6253H13.417C13.0753 15.6253 12.792 15.342 12.792 15.0003C12.792 14.6587 13.0753 14.3753 13.417 14.3753H14.667C15.467 14.3753 16.1253 13.717 16.1253 12.917V11.667C16.1253 11.3253 16.4087 11.042 16.7503 11.042C17.092 11.042 17.3753 11.3253 17.3753 11.667V12.917C17.3753 14.4087 16.1587 15.6253 14.667 15.6253Z" fill="#1F1F1F"/>
</svg>