<svg xmlns="http://www.w3.org/2000/svg" width="32" height="32" viewBox="0 0 32 32" fill="none">
  <path d="M4.70305 19.2971H4.80001V21.8668H3.68486V21.091H2.56971V21.8668H1.45456C1.16365 21.8668 0.921227 22.1092 0.921227 22.4001V22.691C0.678803 22.691 0.484863 22.885 0.484863 23.1274V29.0426C0.484863 29.285 0.678803 29.4789 0.921227 29.4789V29.6729C0.921227 29.9638 1.16365 30.2062 1.45456 30.2062H1.89092V30.3516C1.89092 30.5456 2.03638 30.691 2.23032 30.691C2.42426 30.691 2.56971 30.5456 2.56971 30.3516V30.2062H3.73335V30.3516C3.73335 30.5456 3.8788 30.691 4.07274 30.691C4.2182 30.691 4.36365 30.5456 4.36365 30.3516V30.2062H4.80001C5.09092 30.2062 5.33335 29.9638 5.33335 29.6729V22.3516C5.33335 22.2547 5.28486 22.1577 5.23638 22.0607V19.2971H5.33335V18.5698H4.70305V19.2971Z" fill="white"/>
  <path d="M10.4725 6.59398C11.8917 6.59398 13.0422 5.44349 13.0422 4.02429C13.0422 2.60508 11.8917 1.45459 10.4725 1.45459C9.05333 1.45459 7.90283 2.60508 7.90283 4.02429C7.90283 5.44349 9.05333 6.59398 10.4725 6.59398Z" fill="white"/>
  <path d="M26.6182 22.2061C25.6485 22.5939 24.6788 22.7879 23.6606 22.8848L25.2122 29.4303C25.4061 30.2061 26.1819 30.7394 27.0061 30.5455C27.8303 30.3515 28.3152 29.5273 28.1213 28.7515L26.6182 22.2061Z" fill="white"/>
  <path d="M19.4424 29.188C19.4424 30.0123 20.1212 30.691 20.9454 30.691C21.7697 30.691 22.4484 30.0123 22.4484 29.188V22.8365C21.4303 22.788 20.4121 22.5456 19.4424 22.1577V29.188Z" fill="white"/>
  <path d="M31.3698 8.77558C31.0789 8.29073 30.4486 8.19376 29.9637 8.48467L28.7031 9.30892L26.6668 7.80589C26.5698 7.7574 26.4728 7.70892 26.3758 7.66043C24.0971 6.39982 21.8668 6.49679 19.7819 7.66043C19.6364 7.7574 19.5395 7.85437 19.4425 8.04831L17.1152 12.5574L18.1819 14.8362L19.7334 11.7816V12.7998L18.0849 21.0422C21.2364 22.9332 24.8243 22.9332 27.9758 21.0422L26.3274 12.7998V10.1332L28.0243 11.3938C28.3637 11.6362 28.8001 11.6362 29.188 11.4422L31.0304 10.2301C31.5152 9.84225 31.6607 9.26043 31.3698 8.77558Z" fill="white"/>
  <path d="M23.079 6.44848C24.485 6.44848 25.6487 5.28484 25.6487 3.87878C25.6487 2.47272 24.485 1.30908 23.079 1.30908C21.6729 1.30908 20.5093 2.47272 20.5093 3.87878C20.5093 5.28484 21.6244 6.44848 23.079 6.44848Z" fill="white"/>
  <path d="M14.7396 8.67865C14.5941 8.38774 14.3517 8.1938 14.0608 8.14532C11.5396 6.49684 9.01836 6.44835 6.73957 8.24229C6.6426 8.29078 6.54563 8.33926 6.49714 8.43623C3.4426 11.3938 3.73351 15.2241 6.49714 17.5514C6.93351 17.8908 7.56381 17.8423 7.90321 17.4544C8.2426 17.018 8.19412 16.3877 7.80624 16.0483C6.40018 14.8847 5.91533 13.1877 6.73957 11.4423C7.03048 12.7514 6.40018 14.1574 8.14563 15.6605C8.77593 16.1938 8.8729 17.1635 8.33957 17.7938C8.04866 18.1332 7.70927 18.2787 7.32139 18.3271L7.46684 20.1696C7.41836 20.509 7.6123 19.1029 6.35169 29.0423C6.25472 29.8665 6.83654 30.5938 7.66078 30.7393C8.48502 30.8362 9.26078 30.2544 9.35775 29.4302C9.74563 26.0362 10.4244 20.7514 10.4244 20.509H10.7153C10.7153 20.7514 10.8123 21.2362 11.782 29.4302C11.879 30.2544 12.6547 30.8362 13.479 30.7393C14.3032 30.6423 14.885 29.8665 14.7881 29.0423L13.7214 20.2665C13.7214 20.218 13.7214 20.1696 13.6729 20.1211L14.2547 12.2665L16.0487 16.1453C16.6305 17.3574 18.4244 16.5332 17.8911 15.3211L14.7396 8.67865Z" fill="white"/>
</svg>