<svg xmlns="http://www.w3.org/2000/svg" width="21" height="20" viewBox="0 0 21 20" fill="none">
  <path d="M17.1665 4.79199H12.1665C11.8248 4.79199 11.5415 4.50866 11.5415 4.16699C11.5415 3.82533 11.8248 3.54199 12.1665 3.54199H17.1665C17.5082 3.54199 17.7915 3.82533 17.7915 4.16699C17.7915 4.50866 17.5082 4.79199 17.1665 4.79199Z" fill="white"/>
  <path d="M14.6665 7.29199H12.1665C11.8248 7.29199 11.5415 7.00866 11.5415 6.66699C11.5415 6.32533 11.8248 6.04199 12.1665 6.04199H14.6665C15.0082 6.04199 15.2915 6.32533 15.2915 6.66699C15.2915 7.00866 15.0082 7.29199 14.6665 7.29199Z" fill="white"/>
  <path d="M10.0832 18.1253C5.37484 18.1253 1.5415 14.292 1.5415 9.58366C1.5415 4.87533 5.37484 1.04199 10.0832 1.04199C10.4248 1.04199 10.7082 1.32533 10.7082 1.66699C10.7082 2.00866 10.4248 2.29199 10.0832 2.29199C6.05817 2.29199 2.7915 5.56699 2.7915 9.58366C2.7915 13.6003 6.05817 16.8753 10.0832 16.8753C14.1082 16.8753 17.3748 13.6003 17.3748 9.58366C17.3748 9.24199 17.6582 8.95866 17.9998 8.95866C18.3415 8.95866 18.6248 9.24199 18.6248 9.58366C18.6248 14.292 14.7915 18.1253 10.0832 18.1253Z" fill="white"/>
  <path d="M18.8335 18.9585C18.6752 18.9585 18.5169 18.9002 18.3919 18.7752L16.7252 17.1085C16.4835 16.8669 16.4835 16.4669 16.7252 16.2252C16.9669 15.9835 17.3669 15.9835 17.6085 16.2252L19.2752 17.8919C19.5169 18.1335 19.5169 18.5335 19.2752 18.7752C19.1502 18.9002 18.9919 18.9585 18.8335 18.9585Z" fill="white"/>
</svg>