<svg xmlns="http://www.w3.org/2000/svg" width="18" height="18" viewBox="0 0 18 18" fill="none">
  <path d="M8.99993 16.6873C8.38493 16.6873 7.76993 16.4923 7.25993 16.1098L3.35243 13.1848C2.62493 12.6373 2.18994 11.7673 2.18994 10.8598V1.31982H15.8099V10.8598C15.8099 11.7673 15.3749 12.6373 14.6474 13.1848L10.7399 16.1098C10.2299 16.4923 9.61493 16.6873 8.99993 16.6873ZM3.31494 2.43733V10.8523C3.31494 11.4073 3.58493 11.9398 4.02743 12.2773L7.93492 15.2023C8.56492 15.6748 9.44243 15.6748 10.0724 15.2023L13.9799 12.2773C14.4224 11.9398 14.6924 11.4073 14.6924 10.8523V2.43733H3.31494Z" fill="#141414"/>
  <path d="M16.5 2.4375H1.5C1.1925 2.4375 0.9375 2.1825 0.9375 1.875C0.9375 1.5675 1.1925 1.3125 1.5 1.3125H16.5C16.8075 1.3125 17.0625 1.5675 17.0625 1.875C17.0625 2.1825 16.8075 2.4375 16.5 2.4375Z" fill="#141414"/>
  <path d="M12 6.0625H6C5.98694 6.0625 5.97128 6.0573 5.95699 6.04301C5.9427 6.02872 5.9375 6.01306 5.9375 6C5.9375 5.98694 5.9427 5.97128 5.95699 5.95699C5.97128 5.9427 5.98694 5.9375 6 5.9375H12C12.0131 5.9375 12.0287 5.9427 12.043 5.95699C12.0573 5.97128 12.0625 5.98694 12.0625 6C12.0625 6.01306 12.0573 6.02872 12.043 6.04301C12.0287 6.0573 12.0131 6.0625 12 6.0625Z" fill="#141414" stroke="#141414"/>
  <path d="M12 10.3125H6C5.6925 10.3125 5.4375 10.0575 5.4375 9.75C5.4375 9.4425 5.6925 9.1875 6 9.1875H12C12.3075 9.1875 12.5625 9.4425 12.5625 9.75C12.5625 10.0575 12.3075 10.3125 12 10.3125Z" fill="#292D32"/>
</svg>