<svg xmlns="http://www.w3.org/2000/svg" width="17" height="17" viewBox="0 0 17 17" fill="none">
  <path d="M1.8335 15.1653V8.49707" stroke="#141414" stroke-width="1.2" stroke-linecap="round" stroke-linejoin="round"/>
  <path d="M15.1665 15.1653V8.49707" stroke="#141414" stroke-width="1.2" stroke-linecap="round" stroke-linejoin="round"/>
  <path d="M8.5 15.1645V14.498" stroke="#141414" stroke-width="1.2" stroke-linecap="round" stroke-linejoin="round"/>
  <path d="M8.5 12.4975V11.8311" stroke="#141414" stroke-width="1.2" stroke-linecap="round" stroke-linejoin="round"/>
  <path d="M4.31705 4.26999L4.87033 4.77597M4.87033 4.77597C4.97647 4.59709 5.16043 4.28369 5.22138 4.08763C5.75394 2.37437 5.80113 1.90239 6.62352 1.83496H10.3748C11.1972 1.90239 11.2444 2.37437 11.7769 4.08763C11.8378 4.28369 11.9886 4.59709 12.0947 4.77597M4.87033 4.77597C4.46719 5.45549 3.93303 5.9002 3.85299 6.48732C3.83989 6.58335 3.85299 7.65494 3.85299 8.43241C3.85299 9.01654 4.41557 8.99874 4.96373 9.04421C5.31207 9.07307 5.66093 9.13627 6.01046 9.13987C7.94769 9.15961 9.22856 9.16167 11.1449 9.14081C11.5154 9.13674 11.8888 9.06707 12.2582 9.03574C12.6752 9.00034 13.1112 8.95334 13.1453 8.43241C13.1962 7.65574 13.1584 6.58335 13.1453 6.48732C13.0652 5.9002 12.4978 5.45549 12.0947 4.77597M4.87033 4.77597H12.0947M12.0947 4.77597L12.7428 4.26999M3.96924 6.11998L4.77489 6.73316M7.53889 7.50787H9.49803M12.2469 6.71797L13.1367 6.43426M5.22138 9.07041L5.16937 10.1662M11.8216 9.08407V10.1662" stroke="#141414" stroke-width="1.2" stroke-linecap="round"/>
</svg>