<svg width="33" height="32" viewBox="0 0 33 32" fill="none" xmlns="http://www.w3.org/2000/svg">
<g id="vuesax/linear/star">
<g id="star">
<path id="Vector" d="M18.8065 4.67953L21.1532 9.37287C21.4732 10.0262 22.3265 10.6529 23.0465 10.7729L27.2999 11.4795C30.0199 11.9329 30.6599 13.9062 28.6999 15.8529L25.3932 19.1595C24.8332 19.7195 24.5265 20.7995 24.6999 21.5729L25.6465 25.6662C26.3932 28.9062 24.6732 30.1595 21.8065 28.4662L17.8199 26.1062C17.0999 25.6795 15.9132 25.6795 15.1799 26.1062L11.1932 28.4662C8.33988 30.1595 6.60655 28.8929 7.35321 25.6662L8.29988 21.5729C8.47321 20.7995 8.16655 19.7195 7.60655 19.1595L4.29988 15.8529C2.35321 13.9062 2.97988 11.9329 5.69988 11.4795L9.95321 10.7729C10.6599 10.6529 11.5132 10.0262 11.8332 9.37287L14.1799 4.67953C15.4599 2.13286 17.5399 2.13286 18.8065 4.67953Z" stroke="#141414" stroke-width="1.5" stroke-linecap="round" stroke-linejoin="round"/>
</g>
</g>
</svg>
