<svg xmlns="http://www.w3.org/2000/svg" width="16" height="13" viewBox="0 0 16 13" fill="none">
  <path d="M3.5 7.27148C3.12916 7.27148 2.76665 7.38459 2.45831 7.59651C2.14996 7.80842 1.90964 8.10962 1.76773 8.46202C1.62581 8.81442 1.58868 9.20219 1.66103 9.5763C1.73338 9.95041 1.91195 10.294 2.17418 10.5638C2.4364 10.8335 2.77049 11.0172 3.13421 11.0916C3.49792 11.166 3.87492 11.1278 4.21753 10.9818C4.56014 10.8359 4.85298 10.5887 5.05901 10.2715C5.26504 9.95436 5.375 9.58149 5.375 9.20006C5.37444 8.68874 5.17671 8.19854 4.82521 7.83699C4.4737 7.47544 3.99711 7.27206 3.5 7.27148ZM3.5 10.2286C3.30222 10.2286 3.10888 10.1683 2.94443 10.0553C2.77998 9.94226 2.65181 9.78162 2.57612 9.59367C2.50043 9.40573 2.48063 9.19891 2.51922 8.99939C2.5578 8.79987 2.65304 8.61659 2.79289 8.47275C2.93275 8.3289 3.11093 8.23094 3.30491 8.19125C3.49889 8.15156 3.69996 8.17193 3.88268 8.24978C4.06541 8.32763 4.22159 8.45946 4.33147 8.62861C4.44135 8.79776 4.5 8.99662 4.5 9.20006C4.5 9.47285 4.39464 9.73447 4.20711 9.92736C4.01957 10.1203 3.76522 10.2286 3.5 10.2286Z" fill="white"/>
  <path d="M13 7.27148C12.6292 7.27148 12.2666 7.38459 11.9583 7.59651C11.65 7.80842 11.4096 8.10962 11.2677 8.46202C11.1258 8.81442 11.0887 9.20219 11.161 9.5763C11.2334 9.95041 11.412 10.294 11.6742 10.5638C11.9364 10.8335 12.2705 11.0172 12.6342 11.0916C12.9979 11.166 13.3749 11.1278 13.7175 10.9818C14.0601 10.8359 14.353 10.5887 14.559 10.2715C14.765 9.95436 14.875 9.58149 14.875 9.20006C14.8744 8.68874 14.6767 8.19854 14.3252 7.83699C13.9737 7.47544 13.4971 7.27206 13 7.27148ZM13 10.2286C12.8022 10.2286 12.6089 10.1683 12.4444 10.0553C12.28 9.94226 12.1518 9.78162 12.0761 9.59367C12.0004 9.40573 11.9806 9.19891 12.0192 8.99939C12.0578 8.79987 12.153 8.61659 12.2929 8.47275C12.4327 8.3289 12.6109 8.23094 12.8049 8.19125C12.9989 8.15156 13.2 8.17193 13.3827 8.24978C13.5654 8.32763 13.7216 8.45946 13.8315 8.62861C13.9414 8.79776 14 8.99662 14 9.20006C14 9.47285 13.8946 9.73447 13.7071 9.92736C13.5196 10.1203 13.2652 10.2286 13 10.2286Z" fill="white"/>
  <path d="M15.6432 6.0054C14.4023 5.47883 12.5 4.57141 12.5 4.57141L10.9849 2.04177C10.8796 1.90797 10.7466 1.80013 10.5955 1.72615C10.4444 1.65218 10.2791 1.61394 10.1118 1.61427H2.61803C2.3625 1.61338 2.11183 1.68615 1.89446 1.82433C1.67709 1.96251 1.5017 2.16056 1.38819 2.39604L0.270156 4.69606C0.174693 4.89242 0.124996 5.10896 0.125 5.3285V8.42855C0.125 8.73545 0.243526 9.02977 0.454505 9.24678C0.665483 9.46378 0.951631 9.58569 1.25 9.58569H1.28184C1.22696 9.25371 1.24317 8.9134 1.32935 8.58853C1.41553 8.26365 1.5696 7.96203 1.78081 7.70473C1.99202 7.44742 2.25528 7.24062 2.55222 7.09877C2.84915 6.95692 3.1726 6.88343 3.5 6.88343C3.8274 6.88343 4.15085 6.95692 4.44778 7.09877C4.74472 7.24062 5.00798 7.44742 5.21919 7.70473C5.4304 7.96203 5.58447 8.26365 5.67065 8.58853C5.75683 8.9134 5.77304 9.25371 5.71816 9.58569H10.7818C10.7274 9.25829 10.7422 8.92267 10.8251 8.60165C10.908 8.28063 11.0571 7.98172 11.2623 7.72524C11.4675 7.46875 11.7239 7.26069 12.0142 7.1152C12.3045 6.96971 12.6219 6.8902 12.9447 6.88206C13.2675 6.87392 13.5883 6.93735 13.8852 7.06803C14.182 7.19872 14.4481 7.3936 14.6653 7.63944C14.8824 7.88528 15.0456 8.17631 15.1437 8.49277C15.2418 8.80923 15.2725 9.1437 15.2337 9.47345C15.4257 9.37941 15.5878 9.23135 15.7013 9.04641C15.8148 8.86148 15.875 8.64725 15.875 8.42855V6.36177C15.875 6.28544 15.853 6.21082 15.8117 6.14738C15.7705 6.08393 15.7118 6.03452 15.6432 6.0054ZM1.8875 4.29C1.84574 4.37467 1.78199 4.44579 1.70332 4.49546C1.62466 4.54514 1.53415 4.57142 1.44184 4.57141H0.95575C0.95575 4.57141 1.7495 2.9534 2.04791 2.36753C2.07965 2.30515 2.12739 2.2529 2.18596 2.21644C2.24452 2.17998 2.31167 2.1607 2.38012 2.16069H2.68719C2.71384 2.16068 2.74006 2.16768 2.76334 2.18103C2.78662 2.19438 2.80619 2.21363 2.8202 2.23696C2.83421 2.26029 2.84218 2.28691 2.84336 2.3143C2.84454 2.34169 2.83888 2.36893 2.82694 2.39344L2.82569 2.39604C2.82569 2.39604 2.17762 3.70178 1.8875 4.29ZM3.5 5.98569H3C2.90054 5.98569 2.80516 5.94506 2.73483 5.87272C2.66451 5.80039 2.625 5.70228 2.625 5.59998C2.625 5.49768 2.66451 5.39957 2.73483 5.32724C2.80516 5.2549 2.90054 5.21427 3 5.21427H3.5C3.59946 5.21427 3.69484 5.2549 3.76516 5.32724C3.83549 5.39957 3.875 5.49768 3.875 5.59998C3.875 5.70228 3.83549 5.80039 3.76516 5.87272C3.69484 5.94506 3.59946 5.98569 3.5 5.98569ZM6.875 4.18569C6.875 4.28796 6.83552 4.38604 6.76523 4.45837C6.69494 4.5307 6.59961 4.57136 6.50019 4.57141H3.14375C3.07949 4.57139 3.01631 4.55438 2.96028 4.52203C2.90425 4.48967 2.85724 4.44304 2.82376 4.38662C2.79029 4.3302 2.77147 4.26588 2.76911 4.19983C2.76676 4.13378 2.78095 4.06821 2.81031 4.00942C3.07341 3.48337 3.45444 2.72596 3.64137 2.36519C3.67332 2.30346 3.72098 2.25182 3.77925 2.2158C3.83753 2.17978 3.90423 2.16073 3.97222 2.16069H6.5C6.59946 2.16069 6.69484 2.20133 6.76516 2.27367C6.83549 2.346 6.875 2.44411 6.875 2.54641V4.18569ZM9 5.98569H8.53125C8.43179 5.98569 8.33641 5.94506 8.26608 5.87272C8.19576 5.80039 8.15625 5.70228 8.15625 5.59998C8.15625 5.49768 8.19576 5.39957 8.26608 5.32724C8.33641 5.2549 8.43179 5.21427 8.53125 5.21427H9C9.09945 5.21427 9.19484 5.2549 9.26516 5.32724C9.33549 5.39957 9.375 5.49768 9.375 5.59998C9.375 5.70228 9.33549 5.80039 9.26516 5.87272C9.19484 5.94506 9.09945 5.98569 9 5.98569ZM8.375 4.57141C8.27554 4.57141 8.18016 4.53077 8.10983 4.45844C8.03951 4.3861 8 4.28799 8 4.18569V2.54641C8 2.44411 8.03951 2.346 8.10983 2.27367C8.18016 2.20133 8.27554 2.16069 8.375 2.16069H10.4312L11.875 4.57141H8.375Z" fill="white"/>
</svg>